# xmcd
#
# Track frame offsets: 
#        150
#        35247
#        43701
#        63934
#        70322
#        73035
#        80073
#        98127
#        107096
#        111507
#        134532
#        150394
#        179756
#        190086
#        200199
#        208536
#
# Disc length: 2887 seconds
#
# Revision: 0
# Processed by: cddbd v1.5.2PL0 Copyright (c) Steve Scherf et al.
# Submitted via: ExactAudioCopy v1.0b3
#
DISCID=f90b4510
DTITLE=Various Artist - Svenska Skratt [CD 7)
DYEAR=2011
DGENRE=Comedy
TTITLE0=Crazy-gänget - Kom Till Casino
TTITLE1=Siv Ericks and Anna Sundqvist - 40-Talets Glada Flickor
TTITLE2=Carl-Gustaf Lindstedt - Skjortbekymmer
TTITLE3=Gösta Bernhard - Henne Glömmer Vi
TTITLE4=Gunnar Knas Lindkvist, Gus Dahlström and Crazy-gänget - Tennis P
TTITLE4=å Högsta Nivå
TTITLE5=Carl-Gustaf Lindstedt - Humlan Surrar
TTITLE6=Siv Ericks, Gösta Bernhard, Gunnar Knas Lindkvist - Dagens Ban
TTITLE6=krån
TTITLE7=Crazy-gänget - Litet Galenskaper
TTITLE8=Gunnar Knas Lindkvist - Svart Visa
TTITLE9=Carl-Gustaf Lindstedt and Gösta Bernhard - Oss Fastrar Emellan
TTITLE10=Anna Sundqvist - Tala Me'n
TTITLE11=Crazy-gänget - Några Godbitar Ur Vår Bibliska Miniatyr-Musica
TTITLE11=l
TTITLE12=Gösta Bernhard - Man Vill Så Väl
TTITLE13=Carl-Gustaf Lindstedt - Direktör I Porr
TTITLE14=Siv Ericks and Gösta Bernhard - Lady Chatterley's Lover
TTITLE15=Anna Sundqvist and Carl-Gustaf Lindstedt - Borgens-Förbindelse
EXTD=
EXTT0=
EXTT1=
EXTT2=
EXTT3=
EXTT4=
EXTT5=
EXTT6=
EXTT7=
EXTT8=
EXTT9=
EXTT10=
EXTT11=
EXTT12=
EXTT13=
EXTT14=
EXTT15=
PLAYORDER=
